<?xml version="1.0" standalone="no"?><!-- Generator: Gravit.io --><svg xmlns="http://www.w3.org/2000/svg" xmlns:xlink="http://www.w3.org/1999/xlink" style="isolation:isolate" viewBox="0 0 50 50" width="50" height="50"><defs><clipPath id="_clipPath_1BsBYajL92TKhWOqCgolvlMxNGcxqFQC"><rect width="50" height="50"/></clipPath></defs><g clip-path="url(#_clipPath_1BsBYajL92TKhWOqCgolvlMxNGcxqFQC)"><path d=" M 10.102 22 L 25.102 22 L 25.102 36 L 10.102 36 L 10.102 22 Z " fill="rgb(200,165,112)" vector-effect="non-scaling-stroke" stroke-width="1" stroke="rgb(0,0,0)" stroke-linejoin="miter" stroke-linecap="square" stroke-miterlimit="3"/><path d=" M 25.102 22 L 41 22 L 41 36 L 25.102 36 L 25.102 22 Z " fill="rgb(200,165,112)" vector-effect="non-scaling-stroke" stroke-width="1" stroke="rgb(0,0,0)" stroke-linejoin="miter" stroke-linecap="square" stroke-miterlimit="3"/><path d=" M 9 22 L 25.102 22 L 20.623 15.4 L 17.547 11 L 9 22 Z " fill="rgb(151,8,0)" vector-effect="non-scaling-stroke" stroke-width="1" stroke="rgb(95,33,34)" stroke-linejoin="miter" stroke-linecap="square" stroke-miterlimit="3"/><path d=" M 25 22 L 41.205 22 L 36.697 14.8 L 33.601 10 L 25 22 Z " fill="rgb(151,8,0)" vector-effect="non-scaling-stroke" stroke-width="1" stroke="rgb(95,33,34)" stroke-linejoin="miter" stroke-linecap="square" stroke-miterlimit="3"/><path d=" M 17.463 19 L 19.926 21.095 L 15 21.095 L 17.463 19 Z " fill-rule="evenodd" fill="rgb(0,0,0)"/><path d=" M 32.479 19 L 35.022 21.095 L 29.936 21.095 L 32.479 19 Z " fill-rule="evenodd" fill="rgb(0,0,0)"/><path d=" M 15.92 25.65 L 19.81 25.65 L 19.81 35.286 L 15.92 35.286 L 15.92 25.65 Z " fill="rgb(0,0,0)" vector-effect="non-scaling-stroke" stroke-width="1" stroke="rgb(87,50,35)" stroke-opacity="100" stroke-linejoin="round" stroke-linecap="butt" stroke-miterlimit="1.414"/><path d=" M 30.9 25.65 L 34.915 25.65 L 34.915 35.286 L 30.9 35.286 L 30.9 25.65 Z " fill="rgb(0,0,0)" vector-effect="non-scaling-stroke" stroke-width="1" stroke="rgb(87,50,35)" stroke-opacity="100" stroke-linejoin="round" stroke-linecap="butt" stroke-miterlimit="1.414"/></g></svg>