<?xml version="1.0" standalone="no"?><!-- Generator: Gravit.io --><svg xmlns="http://www.w3.org/2000/svg" xmlns:xlink="http://www.w3.org/1999/xlink" style="isolation:isolate" viewBox="0 0 75 50" width="75" height="50"><defs><clipPath id="_clipPath_RmHI9BSWoXxnpHUCJY5faLU41kFnUQfd"><rect width="75" height="50"/></clipPath></defs><g clip-path="url(#_clipPath_RmHI9BSWoXxnpHUCJY5faLU41kFnUQfd)"><path d=" M 60.053 17 L 54 25 L 30 24 L 21 36 L 15 34 L 15 30 L 26 16 L 60.053 17 Z " fill="rgb(170,161,109)" vector-effect="non-scaling-stroke" stroke-width="1" stroke="rgb(95,33,34)" stroke-linejoin="miter" stroke-linecap="square" stroke-miterlimit="3"/><g><path d=" M 22.5 34.016 L 32.5 34.016 L 32.5 47.286 L 22.5 47.286 L 22.5 34.016 Z " fill="rgb(200,165,112)" vector-effect="non-scaling-stroke" stroke-width="1" stroke="rgb(87,50,35)" stroke-opacity="100" stroke-linejoin="round" stroke-linecap="butt" stroke-miterlimit="1.414"/><path d=" M 26.056 37.65 L 28.817 37.65 L 28.817 47.286 L 26.056 47.286 L 26.056 37.65 Z " fill="rgb(87,50,35)" vector-effect="non-scaling-stroke" stroke-width="1" stroke="rgb(68,54,48)" stroke-opacity="100" stroke-linejoin="round" stroke-linecap="butt" stroke-miterlimit="1.414"/><path d=" M 27.203 30.191 L 28.953 33.286 L 25.453 33.286 L 27.203 30.191 Z " fill-rule="evenodd" fill="rgb(0,0,0)"/><path d=" M 39.5 34.016 L 49.5 34.016 L 49.5 47.286 L 39.5 47.286 L 39.5 34.016 Z " fill="rgb(200,165,112)" vector-effect="non-scaling-stroke" stroke-width="1" stroke="rgb(87,50,35)" stroke-opacity="100" stroke-linejoin="round" stroke-linecap="butt" stroke-miterlimit="1.414"/><path d=" M 43.056 37.65 L 45.817 37.65 L 45.817 47.286 L 43.056 47.286 L 43.056 37.65 Z " fill="rgb(87,50,35)" vector-effect="non-scaling-stroke" stroke-width="1" stroke="rgb(87,50,35)" stroke-opacity="100" stroke-linejoin="round" stroke-linecap="butt" stroke-miterlimit="1.414"/><path d=" M 44.203 30.191 L 45.953 33.286 L 42.453 33.286 L 44.203 30.191 Z " fill-rule="evenodd" fill="rgb(0,0,0)"/><path d=" M 49.5 30.45 L 66.5 9 L 71.5 17.775 L 50 47.286 L 50 34.016 L 51.5 33.375 L 49.5 30.45 Z " fill="rgb(200,165,112)" vector-effect="non-scaling-stroke" stroke-width="1" stroke="rgb(87,50,35)" stroke-linejoin="miter" stroke-linecap="square" stroke-miterlimit="3"/><path d=" M 22 37 L 15 34.016 L 7 34.016 L 7 47.286 L 22 47.286 L 22 37 Z " fill="rgb(200,165,112)" vector-effect="non-scaling-stroke" stroke-width="1" stroke="rgb(87,50,35)" stroke-linejoin="miter" stroke-linecap="square" stroke-miterlimit="3"/><path d=" M 55 40 L 54 37 L 53 33 L 54 31 L 55 32 L 57 37 L 55 40 Z " fill="rgb(0,0,0)" vector-effect="non-scaling-stroke" stroke-width="1" stroke="rgb(87,50,35)" stroke-linejoin="miter" stroke-linecap="square" stroke-miterlimit="3"/><path d=" M 59 34 L 58.8 32.2 L 58 29 L 58 26 L 60.053 25 L 61 26 L 62 30 L 59 34 Z " fill="rgb(0,0,0)" vector-effect="non-scaling-stroke" stroke-width="1" stroke="rgb(87,50,35)" stroke-linejoin="miter" stroke-linecap="square" stroke-miterlimit="3"/><path d=" M 65 26 L 63 21 L 63 18 L 64 17 L 65 18 L 66 21 L 67 23 L 67 23 L 65 26 Z " fill="rgb(0,0,0)" vector-effect="non-scaling-stroke" stroke-width="1" stroke="rgb(87,50,35)" stroke-linejoin="miter" stroke-linecap="square" stroke-miterlimit="3"/><path d=" M 33 35 L 39 35 L 39 47 L 33 47 L 33 35 Z " fill="rgb(200,165,112)" vector-effect="non-scaling-stroke" stroke-width="1" stroke="rgb(87,50,35)" stroke-linejoin="miter" stroke-linecap="square" stroke-miterlimit="3"/><path d=" M 7 33 L 7 27 L 24 6 L 68 8 L 60.053 17 L 26 16 L 15 30 L 15 33 L 7 33 Z " fill="rgb(151,8,0)" vector-effect="non-scaling-stroke" stroke-width="1" stroke="rgb(95,33,34)" stroke-linejoin="miter" stroke-linecap="square" stroke-miterlimit="3"/></g><path d=" M 20 34 L 35 34 L 30.827 29.05 L 27.961 25.75 L 20 34 Z " fill="rgb(151,8,0)" vector-effect="non-scaling-stroke" stroke-width="1" stroke="rgb(95,33,34)" stroke-linejoin="miter" stroke-linecap="square" stroke-miterlimit="3"/><path d=" M 36.905 34.375 L 52 34.375 L 47.801 28.975 L 44.917 25.375 L 36.905 34.375 Z " fill="rgb(151,8,0)" vector-effect="non-scaling-stroke" stroke-width="1" stroke="rgb(95,33,34)" stroke-linejoin="miter" stroke-linecap="square" stroke-miterlimit="3"/></g></svg>